<svg xmlns="http://www.w3.org/2000/svg" width="17.135" height="11.884" viewBox="0 0 17.135 11.884">
  <g id="Group_35" data-name="Group 35" transform="translate(-1587.863 -900.058)">
    <path id="Path_30" data-name="Path 30" d="M108.27,5.478,102.982.19a.651.651,0,0,0-.919,0l-.389.389a.651.651,0,0,0,0,.919l4.441,4.441-4.446,4.446a.652.652,0,0,0,0,.92l.389.389a.651.651,0,0,0,.919,0L108.27,6.4a.656.656,0,0,0,0-.923Z" transform="translate(1496.539 900.058)" fill="#820263"/>
    <rect id="Rectangle_551" data-name="Rectangle 551" width="15" height="2" rx="1" transform="translate(1587.863 905)" fill="#820263"/>
  </g>
</svg>
