<svg xmlns="http://www.w3.org/2000/svg" width="32.642" height="32.642" viewBox="0 0 32.642 32.642"><g transform="translate(0 0)"><path d="M0,0H32.642V32.642H0Z" transform="translate(0 0)" fill="none"/><path d="M8.44,14.241h2.72v2.72H8.44Zm19.041-6.8V26.481a2.728,2.728,0,0,1-2.72,2.72H5.72A2.719,2.719,0,0,1,3,26.481L3.014,7.44A2.708,2.708,0,0,1,5.72,4.72H7.08V2H9.8V4.72H20.681V2H23.4V4.72h1.36A2.728,2.728,0,0,1,27.481,7.44ZM5.72,10.16H24.761V7.44H5.72ZM24.761,26.481v-13.6H5.72v13.6Zm-5.44-9.521h2.72v-2.72h-2.72Zm-5.44,0H16.6v-2.72h-2.72Z" transform="translate(1.08 0.72)" fill="#820263"/></g></svg>