<svg xmlns="http://www.w3.org/2000/svg" width="41.053" height="41.053" viewBox="0 0 41.053 41.053"><g transform="translate(0 0)"><path d="M0,0H41.053V41.053H0Z" transform="translate(0 0)" fill="none"/><path d="M26.358,11.843a10.219,10.219,0,0,0-7.253-3.011V19.1l-7.253,7.253A10.257,10.257,0,1,0,26.358,11.843ZM19.105,1.99A17.105,17.105,0,1,0,36.211,19.1,17.112,17.112,0,0,0,19.105,1.99Zm0,30.79A13.684,13.684,0,1,1,32.79,19.1,13.681,13.681,0,0,1,19.105,32.78Z" transform="translate(1.421 1.414)" fill="#820263"/></g></svg>