<svg xmlns="http://www.w3.org/2000/svg" width="41.598" height="41.598" viewBox="0 0 41.598 41.598"><path d="M25.792,5A20.8,20.8,0,1,0,40.5,11.091,20.8,20.8,0,0,0,25.792,5Zm-14,6.795a19.884,19.884,0,0,1,4.535-3.4L18.7,10.186a6.9,6.9,0,0,0,.655.436,5.912,5.912,0,0,1,1.86,1.722L22.6,14.33a1.662,1.662,0,0,1-.05,1.969l-.639.829a.977.977,0,0,1-.893.371l-.725-.093a3.113,3.113,0,0,0-3.09,1.525.989.989,0,0,1-.989.467l-1.658-.211a3.2,3.2,0,0,0-3.069,1.387,2.9,2.9,0,0,0-.049,3.179L12.541,25.5a2.744,2.744,0,0,0,3.6.947l1.138-.61a1.6,1.6,0,0,1,1.573.038l2.16,1.3a1.025,1.025,0,0,0,.555.146,2.547,2.547,0,0,1,2.106,1.122l1.057,1.473c.082.114.17.227.261.334l1.382,1.626a.209.209,0,0,1,.048.173.246.246,0,0,1-.1.148l-2.076,1.594A3.852,3.852,0,0,0,22.9,35.717l-.7,2.264a.921.921,0,0,1-.173.32l-.679.817a4.359,4.359,0,0,0-1.01,2.394.581.581,0,0,1-.355.484.045.045,0,0,1-.048-.008.089.089,0,0,1-.017-.043l-.636-3.823a3.472,3.472,0,0,0-.662-1.529l-2.344-3.074a2.22,2.22,0,0,1-.376-.758l-.774-2.792a3.436,3.436,0,0,0-2.4-2.386l-.169-.046a1.672,1.672,0,0,1-.7-.394l-1.444-1.359a2.772,2.772,0,0,1-.495-.621,3.716,3.716,0,0,0-3.789-1.8A19.655,19.655,0,0,1,11.788,11.794ZM39.8,39.8a19.8,19.8,0,0,1-33.808-14q0-.708.05-1.407L6.2,24.36a2.72,2.72,0,0,1,2.87,1.3,3.767,3.767,0,0,0,.672.844l1.443,1.358A2.67,2.67,0,0,0,12.3,28.5l.169.046a2.438,2.438,0,0,1,1.7,1.693l.774,2.792a3.211,3.211,0,0,0,.544,1.1L17.834,37.2a2.474,2.474,0,0,1,.471,1.089l.637,3.823a1.04,1.04,0,0,0,1.431.8,1.573,1.573,0,0,0,.96-1.311,3.369,3.369,0,0,1,.784-1.848l.679-.817a1.913,1.913,0,0,0,.359-.662l.7-2.264a2.863,2.863,0,0,1,1-1.435l2.076-1.594A1.23,1.23,0,0,0,27.4,32.2a1.207,1.207,0,0,0-.272-.974L25.749,29.6c-.073-.086-.144-.177-.21-.269l-1.057-1.473a3.542,3.542,0,0,0-2.94-1.536.034.034,0,0,1-.018,0l-2.16-1.3a2.6,2.6,0,0,0-2.555-.062l-1.138.61a1.746,1.746,0,0,1-2.29-.6l-1.105-1.745a1.906,1.906,0,0,1,.032-2.089,2.21,2.21,0,0,1,2.12-.958l1.658.211a1.982,1.982,0,0,0,1.974-.953,2.12,2.12,0,0,1,2.1-1.039l.725.093a1.976,1.976,0,0,0,1.806-.75l.639-.829a2.653,2.653,0,0,0,.079-3.143l-1.377-1.987a6.914,6.914,0,0,0-2.175-2.014,5.9,5.9,0,0,1-.56-.373l-1.994-1.5a19.852,19.852,0,0,1,20.7,2.316l-.517.722a26.224,26.224,0,0,0-3.3,4.472l-.752,1.285a1.491,1.491,0,0,0,.179,1.719,2.261,2.261,0,0,0,1.427.756l.361.044a3.1,3.1,0,0,1,2.582,2.172,3.027,3.027,0,0,1-.891,3.138l-3.558,3.159a2.123,2.123,0,0,0-.7,1.6v.838a1.674,1.674,0,0,0,.759,1.426A2.891,2.891,0,0,1,34.906,33.7l.079.817a1.444,1.444,0,0,0,1.458,1.3h2.094a3.171,3.171,0,0,0,2.92-1.887l.126-.277a2.912,2.912,0,0,1,2.554-1.747l.493-.02h.015A19.715,19.715,0,0,1,39.8,39.8Zm5.147-8.932-.244.025c-.039,0-.077.007-.115.008l-.492.022a3.9,3.9,0,0,0-3.419,2.345l-.126.267a2.177,2.177,0,0,1-2.01,1.292H36.443a.457.457,0,0,1-.473-.408l-.084-.827A3.861,3.861,0,0,0,34.133,30.7a.675.675,0,0,1-.3-.586v-.839a1.128,1.128,0,0,1,.369-.858l3.567-3.159a4.021,4.021,0,0,0,1.179-4.172,4.093,4.093,0,0,0-3.414-2.871l-.362-.044a1.269,1.269,0,0,1-.8-.424.5.5,0,0,1-.066-.566l.749-1.281a25.228,25.228,0,0,1,3.193-4.323.492.492,0,0,0,.038-.047l.494-.69q.523.456,1.019.95a19.675,19.675,0,0,1,5.8,14,19.915,19.915,0,0,1-.653,5.072Z" transform="translate(-4.992 -4.999)" fill="#820263"/></svg>