<svg xmlns="http://www.w3.org/2000/svg" width="62.956" height="62.955" viewBox="0 0 62.956 62.955"><g transform="translate(0 0)"><path d="M0,0H62.956V62.955H0Z" transform="translate(0 0)" fill="none"/><path d="M28.206,2A26.231,26.231,0,1,0,54.464,28.231,26.219,26.219,0,0,0,28.206,2ZM46.384,17.739H38.646A41.049,41.049,0,0,0,35.026,8.4,21.063,21.063,0,0,1,46.384,17.739ZM28.232,7.351a36.951,36.951,0,0,1,5.01,10.388H23.222A36.951,36.951,0,0,1,28.232,7.351ZM7.928,33.478a21.619,21.619,0,0,1-.682-5.246,21.619,21.619,0,0,1,.682-5.246h8.866a43.321,43.321,0,0,0-.367,5.246,43.321,43.321,0,0,0,.367,5.246Zm2.151,5.246h7.738a41.049,41.049,0,0,0,3.62,9.338,20.951,20.951,0,0,1-11.358-9.338Zm7.738-20.985H10.079A20.951,20.951,0,0,1,21.438,8.4,41.049,41.049,0,0,0,17.818,17.739ZM28.232,49.111a36.951,36.951,0,0,1-5.01-10.388H33.242A36.951,36.951,0,0,1,28.232,49.111ZM34.37,33.478H22.094a38.592,38.592,0,0,1-.42-5.246,38.257,38.257,0,0,1,.42-5.246H34.37a38.258,38.258,0,0,1,.42,5.246A38.593,38.593,0,0,1,34.37,33.478Zm.656,14.585a41.049,41.049,0,0,0,3.62-9.338h7.738A21.063,21.063,0,0,1,35.026,48.062Zm4.643-14.585a43.32,43.32,0,0,0,.367-5.246,43.32,43.32,0,0,0-.367-5.246h8.866a21.619,21.619,0,0,1,.682,5.246,21.619,21.619,0,0,1-.682,5.246Z" transform="translate(3.246 3.246)" fill="#820263"/></g></svg>