<svg xmlns="http://www.w3.org/2000/svg" width="37.14" height="36.745" viewBox="0 0 37.14 36.745"><path d="M18.57,36.745A18.479,18.479,0,0,0,37.14,18.373a18.571,18.571,0,0,0-37.14,0A18.479,18.479,0,0,0,18.57,36.745ZM25.2,17.061h2.659V14.432h2.659v2.63H33.15v2.63H30.515v2.63H27.856v-2.63H25.2Zm-5.706-5.483-2.516,2.416c-3.219-3.113-9.481-.845-9.481,4.371,0,7.075,10.15,7.559,11.03,1.837H13.276V17.047H22.03a8.631,8.631,0,0,1-8.754,10.512v0a9.222,9.222,0,0,1-9.286-9.188c0-8.173,9.8-12.036,15.5-6.795Z" fill="rgba(41,23,32,0.7)"/></svg>