<svg xmlns="http://www.w3.org/2000/svg" width="41.019" height="41.019" viewBox="0 0 41.019 41.019"><g transform="translate(0 0.001)"><path d="M0,0H41.019V41.019H0Z" transform="translate(0 -0.001)" fill="none"/><path d="M2,27.255H5.5v.894H3.751v1.789H5.5v.894H2v1.789H7.253V25.466H2Zm1.751-16.1H5.5V4H2V5.789H3.751ZM2,16.522H5.152L2,20.278v1.61H7.253V20.1H4.1l3.152-3.757v-1.61H2ZM10.755,5.789V9.366H35.27V5.789Zm0,25.044H35.27V27.255H10.755Zm0-10.733H35.27V16.522H10.755Z" transform="translate(1.099 2.198)" fill="#820263"/></g></svg>