<svg xmlns="http://www.w3.org/2000/svg" width="32.642" height="32.642" viewBox="0 0 32.642 32.642"><path d="M0,0H32.642V32.642H0Z" fill="none"/><path d="M14.881,6.72a2.72,2.72,0,1,1-2.72,2.72,2.728,2.728,0,0,1,2.72-2.72m0,13.6c3.672,0,7.888,1.754,8.16,2.72H6.72c.313-.979,4.5-2.72,8.16-2.72M14.881,4a5.44,5.44,0,1,0,5.44,5.44A5.439,5.439,0,0,0,14.881,4Zm0,13.6C11.249,17.6,4,19.423,4,23.041v2.72H25.761v-2.72C25.761,19.423,18.512,17.6,14.881,17.6Z" transform="translate(1.44 1.44)" fill="#820263"/></svg>