<svg xmlns="http://www.w3.org/2000/svg" width="62.956" height="62.955" viewBox="0 0 62.956 62.955"><g transform="translate(0 0)"><path d="M0,0H62.956V62.955H0Z" transform="translate(0 0)" fill="none"/><path d="M28.232,2A26.231,26.231,0,1,0,54.464,28.231,26.241,26.241,0,0,0,28.232,2ZM15.3,44.7c1.128-2.361,8-4.669,12.932-4.669S40.062,42.344,41.164,44.7a20.79,20.79,0,0,1-25.865,0Zm29.616-3.8c-3.751-4.564-12.854-6.112-16.683-6.112S15.3,36.337,11.548,40.9a20.986,20.986,0,1,1,33.367,0ZM28.232,12.493a9.181,9.181,0,1,0,9.181,9.181A9.158,9.158,0,0,0,28.232,12.493Zm0,13.116a3.935,3.935,0,1,1,3.935-3.935A3.929,3.929,0,0,1,28.232,25.608Z" transform="translate(3.246 3.246)" fill="#820263"/></g></svg>