<svg xmlns="http://www.w3.org/2000/svg" width="42" height="41" viewBox="0 0 42 41"><g transform="translate(0 0.266)"><g transform="translate(0 0.165)"><rect width="42" height="41" transform="translate(0 -0.431)" fill="none"/></g><g transform="translate(3.449 3.113)"><path d="M19.243,2A17.243,17.243,0,1,0,36.486,19.243,17.249,17.249,0,0,0,19.243,2Zm0,31.037A13.794,13.794,0,1,1,33.037,19.243,13.813,13.813,0,0,1,19.243,33.037Zm1.535-15.346c-3.069-1.017-4.552-1.655-4.552-3.276,0-1.759,1.914-2.4,3.121-2.4a3.332,3.332,0,0,1,3.276,2.311l2.724-1.155A5.906,5.906,0,0,0,20.76,9.328V7.173H17.743V9.345a5.318,5.318,0,0,0-4.518,5.1c0,3.914,3.88,5.018,5.776,5.707,2.724.966,3.931,1.845,3.931,3.5,0,1.948-1.811,2.776-3.414,2.776-3.138,0-4.035-3.224-4.138-3.6l-2.862,1.155a6.96,6.96,0,0,0,5.207,5.1v2.224h3.018V29.175c.9-.155,5.207-1.017,5.207-5.552C25.968,21.226,24.916,19.122,20.778,17.691Z" transform="translate(-2 -2)" fill="#820263"/></g></g></svg>