<svg xmlns="http://www.w3.org/2000/svg" width="19.154" height="19.15" viewBox="0 0 19.154 19.15"><defs><style>.a{fill:#820263;}</style></defs><path class="a" d="M18.859,17.446l-4.721-4.741a7.551,7.551,0,0,0,1.879-4.972A7.884,7.884,0,0,0,8.008,0,7.884,7.884,0,0,0,0,7.733a7.884,7.884,0,0,0,8.008,7.733,8.118,8.118,0,0,0,4.588-1.4l4.757,4.777a1.071,1.071,0,0,0,1.477.028A.986.986,0,0,0,18.859,17.446ZM8.008,2.017a5.827,5.827,0,0,1,5.919,5.716,5.827,5.827,0,0,1-5.919,5.716A5.827,5.827,0,0,1,2.089,7.733,5.827,5.827,0,0,1,8.008,2.017Z" transform="translate(19.154) rotate(90)"/></svg>