<svg xmlns="http://www.w3.org/2000/svg" width="35.75" height="36.745" viewBox="0 0 35.75 36.745"><path d="M17.875,0A18.131,18.131,0,0,0,0,18.373,18.131,18.131,0,0,0,17.875,36.745,18.131,18.131,0,0,0,35.75,18.373,18.131,18.131,0,0,0,17.875,0Zm8.162,14.325q.012.271.012.545c0,5.572-4.127,12-11.674,12h0a11.386,11.386,0,0,1-6.289-1.894,8.116,8.116,0,0,0,6.074-1.747A4.123,4.123,0,0,1,10.327,20.3a3.982,3.982,0,0,0,1.853-.072,4.191,4.191,0,0,1-3.292-4.134c0-.019,0-.036,0-.054a3.991,3.991,0,0,0,1.858.527,4.245,4.245,0,0,1-1.826-3.51,4.3,4.3,0,0,1,.556-2.12,11.547,11.547,0,0,0,8.457,4.406,4.325,4.325,0,0,1-.107-.962,4.162,4.162,0,0,1,4.1-4.217A4.047,4.047,0,0,1,24.926,11.5a8.1,8.1,0,0,0,2.605-1.024,4.215,4.215,0,0,1-1.8,2.332,8.011,8.011,0,0,0,2.356-.664,8.471,8.471,0,0,1-2.046,2.184Zm0,0" fill="rgba(41,23,32,0.7)"/></svg>