<svg xmlns="http://www.w3.org/2000/svg" width="41" height="41" viewBox="0 0 41 41"><g transform="translate(-0.484 0.431)"><g transform="translate(0 -0.431)"><rect width="41" height="41" transform="translate(0.484)" fill="none"/></g><g transform="translate(5.134 5.127)"><path d="M33.793,15.181h-11.6l4.688-4.824a12.042,12.042,0,0,0-16.9-.171,11.762,11.762,0,0,0,0,16.748,12.009,12.009,0,0,0,16.9,0,11.142,11.142,0,0,0,3.49-8.366h3.422a15.98,15.98,0,0,1-4.516,10.761,15.489,15.489,0,0,1-21.761,0A15.123,15.123,0,0,1,7.481,7.807a15.375,15.375,0,0,1,21.641,0L33.793,3ZM19.251,11.554v7.271l5.988,3.558-1.232,2.07-7.322-4.345V11.554Z" transform="translate(-3.001 -3)" fill="#820263"/></g></g></svg>